<svg width="191" height="35" viewBox="0 0 191 35" fill="none" xmlns="http://www.w3.org/2000/svg">
<path d="M22.103 16.6174V17.0747C22.103 23.7818 19.0543 27.2878 13.2618 27.2878C9.2985 27.2878 6.40225 25.3062 5.33521 21.1904L4.8779 21.3429C5.33521 24.2391 5.64008 26.0684 5.64008 28.2024V33.6901H0V6.70917H5.64008C5.64008 7.92864 5.33521 9.75786 4.8779 12.3492L5.33521 12.5017C6.40225 8.23351 9.2985 6.4043 13.2618 6.4043C19.0543 6.4043 22.103 9.91029 22.103 16.6174ZM5.64008 16.1601V17.532C5.64008 22.1051 7.62173 24.8489 11.1277 24.8489C14.6337 24.8489 16.4629 22.5624 16.4629 17.6845V15.8552C16.4629 10.9773 14.6337 8.69081 11.1277 8.69081C7.62173 8.84325 5.64008 11.5871 5.64008 16.1601Z" fill="#121212"/>
<path d="M24.3857 22.4022C24.3857 18.4389 27.7393 16.9146 33.3794 16L39.0195 14.9329V12.0367C39.0195 8.98796 37.8 7.76849 35.0562 7.76849C31.855 7.76849 30.6356 9.5977 30.6356 14.3232L24.843 13.7134C24.6906 8.83553 28.0442 6.24414 34.9037 6.24414C41.4584 6.24414 44.5071 8.37822 44.5071 12.9513V23.3168C44.5071 24.6887 45.1168 24.8412 46.6412 24.3839L46.4888 25.9082C45.7266 26.9752 44.6595 27.4325 43.2876 27.4325C39.9341 27.4325 39.0195 25.7558 39.6292 21.9449L39.1719 21.7925C37.9524 25.2985 34.7513 27.4325 30.4831 27.4325C26.5198 27.4325 24.3857 25.6033 24.3857 22.4022ZM38.867 18.5913V16.4573L35.361 17.2194C31.855 17.9816 30.0258 19.0486 30.0258 21.64V21.7925C30.0258 23.6217 31.0929 24.6887 33.2269 24.6887C36.2756 24.6887 38.867 22.2498 38.867 18.5913Z" fill="#121212"/>
<path d="M49.0869 26.991V6.71716H54.727C54.727 8.39394 54.5746 9.91828 53.9648 13.7291L54.4221 13.8816C55.9465 8.24151 57.9281 6.56473 62.806 6.10742L63.4158 10.8329C56.2513 11.2902 54.727 12.6621 54.727 18.3022V26.991H49.0869Z" fill="#121212"/>
<path d="M65.8516 26.9809V0H71.4916V9.75581C71.4916 12.3472 71.3392 13.8715 71.0343 16.1581L71.3392 16.3105L82.1621 6.70712H85.2107L78.6561 12.8045L85.5156 26.9809H79.2658L74.2355 16.1581L71.4916 18.597V26.8285H65.8516V26.9809Z" fill="#121212"/>
<path d="M91.915 26.9808L85.3604 6.70703H91.0004L94.2016 17.3774C94.8113 19.5115 95.2686 21.3407 95.7259 23.4748H96.1832C96.6405 21.3407 97.0978 19.5115 97.5551 17.5299L100.451 6.85947H105.177L108.226 17.5299C108.835 19.5115 109.293 21.3407 109.75 23.6273H110.207C110.664 21.4932 111.274 19.664 111.884 17.5299L115.238 6.85947H117.676L111.274 26.9808H105.939L102.89 17.0726C102.433 15.5482 101.976 13.719 101.518 11.2801H101.061C100.604 13.5666 100.147 15.5482 99.6892 17.0726L96.9454 27.1333H91.915V26.9808Z" fill="#121212"/>
<path d="M118.441 22.4022C118.441 18.4389 121.795 16.9146 127.435 16L133.075 14.9329V12.0367C133.075 8.98796 131.856 7.76849 129.112 7.76849C125.911 7.76849 124.691 9.5977 124.691 14.3232L118.899 13.7134C118.746 8.83553 122.1 6.24414 128.959 6.24414C135.514 6.24414 138.563 8.37822 138.563 12.9513V23.3168C138.563 24.6887 139.173 24.8412 140.697 24.3839L140.544 25.9082C139.782 26.9752 138.715 27.4325 137.343 27.4325C133.99 27.4325 133.075 25.7558 133.685 21.9449L133.228 21.7925C132.008 25.4509 128.807 27.4325 124.691 27.4325C120.728 27.4325 118.441 25.6033 118.441 22.4022ZM133.075 18.5913V16.4573L129.569 17.2194C126.063 17.9816 124.234 19.0486 124.234 21.64V21.7925C124.234 23.6217 125.301 24.6887 127.435 24.6887C130.484 24.6887 133.075 22.2498 133.075 18.5913Z" fill="#121212"/>
<path d="M141.004 29.4198L144.662 29.2673C148.32 29.1149 148.93 28.81 149.387 27.8954L149.845 26.9808L139.937 6.70703H146.186L150.607 16.6153C151.217 18.1396 151.826 19.5115 152.436 21.3407H152.893C153.503 19.5115 153.96 18.1396 154.57 16.6153L158.381 6.70703H160.972L152.893 25.9138C150.15 32.316 148.32 33.6879 141.461 34.1452L141.004 29.4198Z" fill="#121212"/>
<path d="M168.592 26.9886H189.933C190.543 26.9886 191 26.5313 191 25.9215V19.5193C182.159 19.5193 174.995 12.3549 174.995 3.51367H168.592C167.983 3.51367 167.525 3.97098 167.525 4.58071V25.9215C167.525 26.3788 167.983 26.9886 168.592 26.9886ZM184.598 22.568H171.794V9.91592C173.775 15.8609 178.501 20.5863 184.598 22.568Z" fill="#F9956B"/>
</svg>
