<svg width="19" height="22" viewBox="0 0 19 22" fill="none" xmlns="http://www.w3.org/2000/svg">
<path d="M15.2088 11.6485C15.185 9.07012 17.3741 7.81572 17.4742 7.75732C16.2344 5.99492 14.3128 5.75412 13.6375 5.73492C12.0235 5.56932 10.458 6.67652 9.63588 6.67652C8.79732 6.67652 7.53128 5.75092 6.16677 5.77812C4.41089 5.80452 2.76823 6.79572 1.86732 8.33492C0.0080505 11.4733 1.39471 16.0853 3.17603 18.6221C4.0671 19.8645 5.10832 21.2517 6.47118 21.2029C7.8045 21.1493 8.30255 20.3741 9.91157 20.3741C11.5058 20.3741 11.9735 21.2029 13.3634 21.1717C14.7944 21.1493 15.6953 19.9237 16.5552 18.6701C17.5849 17.2461 17.9985 15.8437 18.0149 15.7717C17.9812 15.7605 15.2358 14.7389 15.2088 11.6485Z" fill="white"/>
<path d="M12.5831 4.06612C13.3003 3.19172 13.7909 2.00212 13.6547 0.794922C12.6168 0.839722 11.3187 1.49492 10.5713 2.35012C9.90992 3.10372 9.31916 4.33892 9.47177 5.50052C10.6377 5.58532 11.8348 4.92692 12.5831 4.06612Z" fill="white"/>
</svg>
