<svg width="18" height="22" viewBox="0 0 18 22" fill="none" xmlns="http://www.w3.org/2000/svg">
<path d="M14.2244 11.6485C14.2006 9.07012 16.3897 7.81572 16.4898 7.75732C15.25 5.99492 13.3284 5.75412 12.6531 5.73492C11.0392 5.56932 9.47365 6.67652 8.6515 6.67652C7.81294 6.67652 6.5469 5.75092 5.1824 5.77812C3.42651 5.80452 1.78386 6.79572 0.882944 8.33492C-0.976324 11.4733 0.410332 16.0853 2.19165 18.6221C3.08272 19.8645 4.12394 21.2517 5.48681 21.2029C6.82013 21.1493 7.31818 20.3741 8.92719 20.3741C10.5214 20.3741 10.9891 21.2029 12.3791 21.1717C13.81 21.1493 14.7109 19.9237 15.5708 18.6701C16.6006 17.2461 17.0141 15.8437 17.0305 15.7717C16.9969 15.7605 14.2515 14.7389 14.2244 11.6485Z" fill="#121212"/>
<path d="M11.5988 4.06612C12.3159 3.19172 12.8065 2.00212 12.6703 0.794922C11.6324 0.839722 10.3344 1.49492 9.58688 2.35012C8.92555 3.10372 8.33478 4.33892 8.4874 5.50052C9.65334 5.58532 10.8505 4.92692 11.5988 4.06612Z" fill="#121212"/>
</svg>
