<svg width="61" height="60" viewBox="0 0 61 60" fill="none" xmlns="http://www.w3.org/2000/svg">
<rect x="0.523438" width="60" height="60" rx="30" fill="white"/>
<path d="M25.375 35.1611V18.2861L27.25 19.2236L29.125 18.2861L30.9965 19.2236L32.8932 18.2861L34.75 19.2236L36.6127 18.2861L38.4836 19.2236L40.375 18.2861L42.2506 19.2236L44.125 18.2861V31.4111" stroke="#E9C649" stroke-width="1.5625" stroke-linejoin="round"/>
<path d="M44.125 31.4111V37.9736C44.125 39.2168 43.6312 40.4091 42.7521 41.2882C41.873 42.1673 40.6807 42.6611 39.4375 42.6611M39.4375 42.6611C38.1943 42.6611 37.002 42.1673 36.123 41.2882C35.2439 40.4091 34.75 39.2168 34.75 37.9736V35.1611H18.8125C18.6891 35.16 18.5667 35.1835 18.4525 35.2303C18.3382 35.277 18.2345 35.346 18.1472 35.4333C18.0599 35.5206 17.9909 35.6243 17.9442 35.7386C17.8974 35.8528 17.8739 35.9752 17.875 36.0986C17.875 39.8486 18.27 42.6611 22.5625 42.6611H39.4375Z" stroke="#E9C649" stroke-width="1.5625" stroke-linejoin="round"/>
<path d="M29.125 23.9111H40.375M32.875 28.5986H40.375" stroke="#E9C649" stroke-width="1.5625" stroke-linecap="round" stroke-linejoin="round"/>
</svg>
