<svg width="11" height="18" viewBox="0 0 11 18" fill="none" xmlns="http://www.w3.org/2000/svg">
<path d="M10 3H7C6.4477 3 6 3.44772 6 4V7H10C10.1137 6.99748 10.2216 7.0504 10.2892 7.1419C10.3568 7.2334 10.3758 7.352 10.34 7.46L9.6 9.66C9.5318 9.8619 9.3431 9.9984 9.13 10H6V17.5C6 17.7761 5.7761 18 5.5 18H3C2.72386 18 2.5 17.7761 2.5 17.5V10H1C0.72386 10 0.5 9.7761 0.5 9.5V7.5C0.5 7.2239 0.72386 7 1 7H2.5V4C2.5 1.79086 4.2909 0 6.5 0H10C10.2761 0 10.5 0.22386 10.5 0.5V2.5C10.5 2.77614 10.2761 3 10 3Z" fill="white"/>
</svg>
