<svg width="1920" height="1086" viewBox="0 0 1920 1086" fill="none" xmlns="http://www.w3.org/2000/svg">
<path d="M4154.93 2269.72L4154.93 2666.99L-958.151 2666.99C-1666.69 1778.57 -2081.36 696.967 -2081.36 -469.33L1036.98 -469.33C1036.98 287.113 1386.6 971.79 1949.95 1467.7C2514.45 1962.58 3293.84 2269.72 4154.93 2269.72Z" stroke="#F6946C" stroke-width="24" stroke-miterlimit="10" stroke-linecap="round" stroke-linejoin="round"/>
<path d="M3290.91 1612.17C3110.22 1248.84 2383.19 -95.238 679.682 -695.587C-0.193288 -935.203 -626.18 -982.801 -1071.23 -977.996C-1643.15 -688.326 -2215.62 -398.375 -2787.54 -108.704L-4208.74 611.117C-3422.8 396.024 -1782.48 51.858 208.386 431.395C1627.3 701.58 2671.03 1234.46 3290.91 1612.17Z" stroke="#F1DB8D" stroke-width="36" stroke-miterlimit="10" stroke-linecap="round" stroke-linejoin="round"/>
</svg>
