<svg width="19" height="18" viewBox="0 0 19 18" fill="none" xmlns="http://www.w3.org/2000/svg">
<path fill-rule="evenodd" clip-rule="evenodd" d="M13.5 0H5.5C2.73858 0 0.5 2.23858 0.5 5V13C0.5 15.7614 2.73858 18 5.5 18H13.5C16.2614 18 18.5 15.7614 18.5 13V5C18.5 2.23858 16.2614 0 13.5 0ZM16.75 13C16.7445 14.7926 15.2926 16.2445 13.5 16.25H5.5C3.70735 16.2445 2.25549 14.7926 2.25 13V5C2.25549 3.20735 3.70735 1.75549 5.5 1.75H13.5C15.2926 1.75549 16.7445 3.20735 16.75 5V13ZM14.25 5.25C14.8023 5.25 15.25 4.80228 15.25 4.25C15.25 3.69772 14.8023 3.25 14.25 3.25C13.6977 3.25 13.25 3.69772 13.25 4.25C13.25 4.80228 13.6977 5.25 14.25 5.25ZM9.5 4.5C7.01472 4.5 5 6.51472 5 9C5 11.4853 7.01472 13.5 9.5 13.5C11.9853 13.5 14 11.4853 14 9C14.0027 7.8057 13.5294 6.65957 12.6849 5.81508C11.8404 4.97059 10.6943 4.49734 9.5 4.5ZM6.75 9C6.75 10.5188 7.9812 11.75 9.5 11.75C11.0188 11.75 12.25 10.5188 12.25 9C12.25 7.4812 11.0188 6.25 9.5 6.25C7.9812 6.25 6.75 7.4812 6.75 9Z" fill="white"/>
</svg>
