<svg width="19" height="18" viewBox="0 0 19 18" fill="none" xmlns="http://www.w3.org/2000/svg">
<path fill-rule="evenodd" clip-rule="evenodd" d="M2.5 0H16.5C17.6046 0 18.5 0.89543 18.5 2V16C18.5 17.1046 17.6046 18 16.5 18H2.5C1.39543 18 0.5 17.1046 0.5 16V2C0.5 0.89543 1.39543 0 2.5 0ZM5.5 15C5.77614 15 6 14.7761 6 14.5V7.5C6 7.2239 5.77614 7 5.5 7H4C3.72386 7 3.5 7.2239 3.5 7.5V14.5C3.5 14.7761 3.72386 15 4 15H5.5ZM4.75 6C3.92157 6 3.25 5.32843 3.25 4.5C3.25 3.67157 3.92157 3 4.75 3C5.57843 3 6.25 3.67157 6.25 4.5C6.25 5.32843 5.57843 6 4.75 6ZM15 15C15.2761 15 15.5 14.7761 15.5 14.5V9.9C15.5325 8.3108 14.3576 6.95452 12.78 6.76C11.677 6.65925 10.6083 7.1744 10 8.1V7.5C10 7.2239 9.7761 7 9.5 7H8C7.7239 7 7.5 7.2239 7.5 7.5V14.5C7.5 14.7761 7.7239 15 8 15H9.5C9.7761 15 10 14.7761 10 14.5V10.75C10 9.9216 10.6716 9.25 11.5 9.25C12.3284 9.25 13 9.9216 13 10.75V14.5C13 14.7761 13.2239 15 13.5 15H15Z" fill="white"/>
</svg>
