<svg width="170" height="31" viewBox="0 0 170 31" fill="none" xmlns="http://www.w3.org/2000/svg">
<path d="M20.3761 15.0411V15.4551C20.3761 21.5265 17.6777 24.7003 12.5507 24.7003C9.04272 24.7003 6.47921 22.9064 5.53476 19.1807L5.12999 19.3187C5.53476 21.9405 5.8046 23.5964 5.8046 25.5282V30.4958H0.8125V6.07187H5.8046C5.8046 7.17578 5.53476 8.83164 5.12999 11.1774L5.53476 11.3154C6.47921 7.45175 9.04272 5.7959 12.5507 5.7959C17.6777 5.7959 20.3761 8.96962 20.3761 15.0411ZM5.8046 14.6271V15.869C5.8046 20.0087 7.55858 22.4924 10.6618 22.4924C13.765 22.4924 15.384 20.4226 15.384 16.007V14.3512C15.384 9.93554 13.765 7.86572 10.6618 7.86572C7.55858 8.00371 5.8046 10.4875 5.8046 14.6271Z" fill="black"/>
<path d="M22.4062 20.284C22.4062 16.6963 25.3745 15.3164 30.3666 14.4885L35.3587 13.5225V10.9008C35.3587 8.14101 34.2794 7.03711 31.8508 7.03711C29.0174 7.03711 27.938 8.69296 27.938 12.9706L22.811 12.4186C22.6761 8.00302 25.6444 5.65723 31.7158 5.65723C37.5175 5.65723 40.2159 7.58906 40.2159 11.7287V21.1119C40.2159 22.3538 40.7556 22.4918 42.1048 22.0778L41.9699 23.4577C41.2953 24.4236 40.3508 24.8376 39.1365 24.8376C36.1683 24.8376 35.3587 23.3197 35.8984 19.87L35.4936 19.732C34.4143 22.9057 31.5809 24.8376 27.8031 24.8376C24.2952 24.8376 22.4062 23.1817 22.4062 20.284ZM35.2238 16.8343V14.9024L32.1206 15.5924C29.0174 16.2823 27.3984 17.2482 27.3984 19.594V19.732C27.3984 21.3879 28.3428 22.3538 30.2317 22.3538C32.9301 22.3538 35.2238 20.146 35.2238 16.8343Z" fill="black"/>
<path d="M44.2578 24.4239V6.07148H49.2499C49.2499 7.58935 49.115 8.96923 48.5753 12.4189L48.9801 12.5569C50.3293 7.45136 52.0833 5.9335 56.4008 5.51953L56.9404 9.79716C50.5991 10.2111 49.2499 11.453 49.2499 16.5586V24.4239H44.2578Z" fill="black"/>
<path d="M59.0938 24.4239V0H64.0859V8.83123C64.0859 11.177 63.9509 12.5569 63.6811 14.6267L63.9509 14.7647L73.5304 6.07147H76.2288L70.4272 11.591L76.4986 24.4239H70.9669L66.5144 14.6267L64.0859 16.8345V24.2859H59.0938V24.4239Z" fill="black"/>
<path d="M82.1688 24.4237L76.3672 6.07129H81.3593L84.1926 15.7304C84.7323 17.6623 85.1371 19.3181 85.5419 21.25H85.9466C86.3514 19.3181 86.7562 17.6623 87.1609 15.8684L89.7244 6.20928H93.907L96.6054 15.8684C97.1451 17.6623 97.5499 19.3181 97.9546 21.388H98.3594C98.7642 19.4561 99.3039 17.8003 99.8435 15.8684L102.812 6.20928H104.971L99.3039 24.4237H94.5816L91.8832 15.4545C91.4784 14.0746 91.0736 12.4187 90.6689 10.2109H90.2641C89.8594 12.2807 89.4546 14.0746 89.0498 15.4545L86.6212 24.5617H82.1688V24.4237Z" fill="black"/>
<path d="M105.641 20.284C105.641 16.6963 108.609 15.3164 113.601 14.4885L118.593 13.5225V10.9008C118.593 8.14101 117.514 7.03711 115.085 7.03711C112.252 7.03711 111.172 8.69296 111.172 12.9706L106.045 12.4186C105.91 8.00302 108.879 5.65723 114.95 5.65723C120.752 5.65723 123.45 7.58906 123.45 11.7287V21.1119C123.45 22.3538 123.99 22.4918 125.339 22.0778L125.204 23.4577C124.53 24.4236 123.585 24.8376 122.371 24.8376C119.403 24.8376 118.593 23.3197 119.133 19.87L118.728 19.732C117.649 23.0437 114.815 24.8376 111.172 24.8376C107.664 24.8376 105.641 23.1817 105.641 20.284ZM118.593 16.8343V14.9024L115.49 15.5924C112.387 16.2823 110.768 17.2482 110.768 19.594V19.732C110.768 21.3879 111.712 22.3538 113.601 22.3538C116.299 22.3538 118.593 20.146 118.593 16.8343Z" fill="black"/>
<path d="M125.616 26.6315L128.854 26.4935C132.093 26.3555 132.632 26.0795 133.037 25.2516L133.442 24.4237L124.672 6.07129H130.204L134.116 15.0405C134.656 16.4204 135.196 17.6623 135.735 19.3181H136.14C136.68 17.6623 137.085 16.4204 137.624 15.0405L140.997 6.07129H143.291L136.14 23.4578C133.712 29.2533 132.093 30.4952 126.021 30.9091L125.616 26.6315Z" fill="black"/>
<path d="M150.038 24.424H168.927C169.467 24.424 169.872 24.01 169.872 23.4581V17.6626C162.046 17.6626 155.705 11.1771 155.705 3.17383H150.038C149.499 3.17383 149.094 3.58779 149.094 4.13974V23.4581C149.094 23.872 149.499 24.424 150.038 24.424ZM164.205 20.4223H152.872V8.96932C154.626 14.3509 158.808 18.6285 164.205 20.4223Z" fill="#F9956B"/>
</svg>
