<svg width="61" height="61" viewBox="0 0 61 61" fill="none" xmlns="http://www.w3.org/2000/svg">
<rect x="0.523438" y="0.526367" width="60" height="60" rx="30" fill="#FDF9ED"/>
<path d="M20.2578 25.7764C20.2578 23.6762 20.2578 22.6261 20.6665 21.8239C21.0261 21.1183 21.5997 20.5446 22.3053 20.1851C23.1075 19.7764 24.1576 19.7764 26.2578 19.7764H34.2578C36.358 19.7764 37.4081 19.7764 38.2103 20.1851C38.9159 20.5446 39.4896 21.1183 39.8491 21.8239C40.2578 22.6261 40.2578 23.6762 40.2578 25.7764V42.2764L36.8203 39.7764L33.6953 42.2764L30.2578 39.7764L26.8203 42.2764L23.6953 39.7764L20.2578 42.2764V25.7764Z" stroke="#E9C649" stroke-width="1.5" stroke-linecap="round" stroke-linejoin="round"/>
</svg>
