<svg width="19" height="16" viewBox="0 0 19 16" fill="none" xmlns="http://www.w3.org/2000/svg">
<path d="M18.4737 2.7174C18.0093 3.33692 17.4479 3.87733 16.8112 4.31776C16.8112 4.47959 16.8112 4.64142 16.8112 4.81225C16.8163 7.7511 15.6424 10.5691 13.5527 12.6345C11.4629 14.6999 8.63206 15.8399 5.69491 15.7989C3.99685 15.8046 2.32053 15.4169 0.797277 14.6661C0.715137 14.6302 0.662166 14.549 0.662476 14.4593V14.3604C0.662476 14.2313 0.767087 14.1267 0.896127 14.1267C2.56528 14.0716 4.17488 13.4929 5.4972 12.4724C3.98639 12.4419 2.62705 11.5469 2.00146 10.1707C1.96987 10.0956 1.9797 10.0093 2.02743 9.9432C2.07515 9.8771 2.15386 9.8407 2.23511 9.8471C2.69428 9.8932 3.15804 9.8505 3.60106 9.7212C1.93325 9.375 0.680067 7.9904 0.500717 6.2957C0.494347 6.2144 0.530776 6.1357 0.596856 6.0879C0.662926 6.0402 0.749097 6.0303 0.824237 6.062C1.2718 6.2595 1.75495 6.3635 2.2441 6.3676C0.782696 5.40846 0.151466 3.58405 0.707406 1.92622C0.764796 1.76513 0.902667 1.64612 1.07036 1.61294C1.23804 1.57975 1.41082 1.63728 1.52518 1.76439C3.49725 3.86325 6.2069 5.11396 9.08276 5.25279C9.00916 4.95885 8.97296 4.65676 8.97496 4.35372C9.00186 2.76472 9.98506 1.34921 11.4643 0.769872C12.9434 0.190542 14.6258 0.562032 15.7239 1.71044C16.4723 1.56785 17.1959 1.31645 17.8716 0.964212C17.9211 0.933312 17.9839 0.933312 18.0334 0.964212C18.0643 1.01373 18.0643 1.07652 18.0334 1.12604C17.7061 1.87552 17.1532 2.50412 16.4518 2.92419C17.066 2.85296 17.6694 2.70807 18.2491 2.49264C18.2979 2.45942 18.362 2.45942 18.4108 2.49264C18.4517 2.51134 18.4823 2.54711 18.4944 2.59042C18.5065 2.63373 18.4989 2.68018 18.4737 2.7174Z" fill="white"/>
</svg>
