<svg width="158" height="53" viewBox="0 0 158 53" fill="none" xmlns="http://www.w3.org/2000/svg">
<path d="M1.25068 27V11.7301H6.55878C6.56847 12.3894 6.53454 13.0874 6.45698 13.8243C6.38911 14.5514 6.23884 15.6857 6.00615 17.2273L6.29701 17.3145C6.70421 15.8021 7.15503 14.6338 7.64948 13.8097C8.14394 12.9856 8.75473 12.3845 9.48187 12.0064C10.2187 11.6186 11.1882 11.352 12.3904 11.2066L12.8994 15.6421C11.0089 15.7875 9.63699 16.0057 8.78382 16.2965C7.93064 16.5874 7.35378 17.0625 7.05323 17.7217C6.75268 18.381 6.60241 19.4184 6.60241 20.8339V27H1.25068ZM30.7531 21.5465C30.5398 23.4564 29.706 24.9058 28.2517 25.8948C26.8071 26.8837 24.8148 27.3781 22.2746 27.3781C19.3855 27.3781 17.1944 26.7285 15.7013 25.4294C14.2083 24.1302 13.4617 22.2251 13.4617 19.7141V18.9869C13.4617 16.5147 14.2034 14.6241 15.6868 13.3153C17.1798 12.0064 19.3419 11.352 22.1728 11.352C24.0052 11.352 25.5613 11.6138 26.8411 12.1373C28.1208 12.6609 29.0855 13.4268 29.7351 14.4351C30.3943 15.4337 30.724 16.6456 30.724 18.0708C30.724 18.507 30.6949 18.9676 30.6367 19.4523H18.828C18.8862 21.1974 19.3128 22.5063 20.1078 23.3789C20.9028 24.2417 22.1001 24.6732 23.6998 24.6732C25.0668 24.6732 26.1527 24.4017 26.9574 23.8588C27.7621 23.3061 28.2614 22.4675 28.4553 21.3429L30.7531 21.5465ZM22.1728 12.7917C19.9333 12.7917 18.8135 14.4545 18.8135 17.7799V18.0417H25.3141V17.2709C25.3141 14.2848 24.267 12.7917 22.1728 12.7917ZM36.7107 27.3781C35.1692 27.3781 33.9767 27.0388 33.1332 26.3601C32.2994 25.6815 31.8825 24.7362 31.8825 23.5243V23.437C31.8825 22.4675 32.1492 21.6725 32.6824 21.052C33.2253 20.4315 33.9767 19.9419 34.9365 19.5832C35.906 19.2245 37.1373 18.9142 38.6304 18.6525L42.7169 17.9399V15.5549C42.7169 14.566 42.5278 13.8582 42.1497 13.4316C41.7716 12.9953 41.1657 12.7772 40.3319 12.7772C39.692 12.7772 39.1782 12.9275 38.7904 13.228C38.4025 13.5189 38.1214 14.0085 37.9469 14.6968C37.7724 15.3852 37.6948 16.3256 37.7142 17.5181L32.3043 17.1255C32.2364 15.2252 32.8763 13.7903 34.2239 12.8208C35.5813 11.8416 37.6415 11.352 40.4046 11.352C42.1788 11.352 43.6282 11.5411 44.7529 11.9192C45.8775 12.2876 46.7113 12.8596 47.2542 13.6352C47.7972 14.4108 48.0686 15.4094 48.0686 16.631V23.8879C48.0686 24.2175 48.1219 24.4599 48.2286 24.615C48.3352 24.7701 48.5001 24.8477 48.723 24.8477C48.9363 24.8477 49.232 24.7798 49.6102 24.6441L49.4647 25.9529C49.1254 26.4377 48.7085 26.7964 48.214 27.0291C47.7293 27.2618 47.1524 27.3781 46.4835 27.3781C45.3297 27.3781 44.496 27.1406 43.9821 26.6655C43.478 26.1905 43.2259 25.4342 43.2259 24.3968C43.2259 24.0284 43.255 23.6212 43.3131 23.1753L43.0223 23.1171C42.5666 24.5132 41.8007 25.5748 40.7245 26.3019C39.6581 27.0194 38.3201 27.3781 36.7107 27.3781ZM39.2412 24.7604C39.9004 24.7604 40.4919 24.5908 41.0154 24.2514C41.5389 23.9024 41.951 23.4128 42.2515 22.7826C42.5618 22.1427 42.7169 21.401 42.7169 20.5576V19.1905L40.5937 19.6123C39.4593 19.8353 38.6207 20.1746 38.0778 20.6303C37.5445 21.0763 37.2779 21.7404 37.2779 22.6226V22.739C37.2779 23.3982 37.4427 23.9024 37.7724 24.2514C38.1117 24.5908 38.6013 24.7604 39.2412 24.7604ZM56.3968 27.2618C54.2347 27.2618 52.6108 26.6219 51.525 25.3421C50.4391 24.0527 49.8962 22.1379 49.8962 19.5977V19.0887C49.8962 16.5486 50.4391 14.6435 51.525 13.3734C52.6108 12.0937 54.2347 11.4538 56.3968 11.4538C57.9092 11.4538 59.1599 11.8271 60.1488 12.5736C61.1474 13.3104 61.8406 14.4496 62.2284 15.9911L62.5338 15.9039C62.3205 14.7889 62.1702 13.8485 62.083 13.0826C62.0054 12.3167 61.9666 11.5071 61.9666 10.654V6.64016H67.3184V27H61.9521C61.9618 26.1274 62.1509 24.7216 62.5193 22.7826L62.2284 22.6953C61.4722 25.7396 59.5283 27.2618 56.3968 27.2618ZM58.52 24.9786C59.6447 24.9786 60.4978 24.552 61.0795 23.6988C61.6709 22.8456 61.9666 21.624 61.9666 20.034V18.6525C61.9666 17.0625 61.6709 15.8409 61.0795 14.9877C60.4978 14.1248 59.6447 13.6934 58.52 13.6934C57.4342 13.6934 56.6198 14.0763 56.0768 14.8423C55.5436 15.6082 55.277 16.7861 55.277 18.3762V20.3103C55.277 21.8906 55.5436 23.0638 56.0768 23.8297C56.6198 24.5956 57.4342 24.9786 58.52 24.9786ZM69.3204 28.4252L72.1563 28.3088C73.087 28.2798 73.7899 28.2264 74.265 28.1489C74.74 28.081 75.0745 27.9889 75.2684 27.8726C75.4623 27.7659 75.6029 27.6108 75.6901 27.4072L75.9374 26.8837L68.4333 11.7301H74.3958L77.3189 18.667C77.7358 19.6365 78.1285 20.7369 78.4969 21.9682H78.7878C79.1949 20.7563 79.5731 19.6559 79.9221 18.667L82.4671 11.7301H84.8812L79.1077 25.7639C78.3418 27.635 77.6098 29.0166 76.9117 29.9085C76.2234 30.8005 75.346 31.4258 74.2795 31.7846C73.2227 32.153 71.7054 32.376 69.7276 32.4535L69.3204 28.4252ZM93.5583 27.3927C90.708 27.3927 88.5508 26.7237 87.0868 25.3858C85.6325 24.0381 84.9054 22.0603 84.9054 19.4523V19.1469C84.9054 16.5874 85.6325 14.6484 87.0868 13.3298C88.5411 12.0016 90.6789 11.3375 93.5002 11.3375C96.1857 11.3375 98.2265 11.8755 99.6227 12.9517C101.019 14.0279 101.785 15.613 101.92 17.7072L96.5978 18.318L96.5832 17.3145C96.5154 15.7439 96.2293 14.6047 95.7252 13.897C95.2307 13.1892 94.4842 12.8354 93.4856 12.8354C92.4095 12.8354 91.6048 13.2474 91.0715 14.0715C90.548 14.8956 90.2862 16.1947 90.2862 17.969V18.5361C90.2862 20.5624 90.6595 22.0797 91.406 23.088C92.1622 24.0963 93.3353 24.6004 94.9253 24.6004C97.6885 24.6004 99.2736 23.3013 99.6808 20.703L102.022 20.9211C101.828 23.0444 101.014 24.6538 99.579 25.7493C98.1538 26.8449 96.1469 27.3927 93.5583 27.3927ZM107.893 27.3781C106.351 27.3781 105.159 27.0388 104.315 26.3601C103.481 25.6815 103.064 24.7362 103.064 23.5243V23.437C103.064 22.4675 103.331 21.6725 103.864 21.052C104.407 20.4315 105.159 19.9419 106.118 19.5832C107.088 19.2245 108.319 18.9142 109.812 18.6525L113.899 17.9399V15.5549C113.899 14.566 113.71 13.8582 113.332 13.4316C112.954 12.9953 112.348 12.7772 111.514 12.7772C110.874 12.7772 110.36 12.9275 109.972 13.228C109.584 13.5189 109.303 14.0085 109.129 14.6968C108.954 15.3852 108.877 16.3256 108.896 17.5181L103.486 17.1255C103.418 15.2252 104.058 13.7903 105.406 12.8208C106.763 11.8416 108.823 11.352 111.586 11.352C113.361 11.352 114.81 11.5411 115.935 11.9192C117.059 12.2876 117.893 12.8596 118.436 13.6352C118.979 14.4108 119.251 15.4094 119.251 16.631V23.8879C119.251 24.2175 119.304 24.4599 119.41 24.615C119.517 24.7701 119.682 24.8477 119.905 24.8477C120.118 24.8477 120.414 24.7798 120.792 24.6441L120.647 25.9529C120.307 26.4377 119.89 26.7964 119.396 27.0291C118.911 27.2618 118.334 27.3781 117.665 27.3781C116.512 27.3781 115.678 27.1406 115.164 26.6655C114.66 26.1905 114.408 25.4342 114.408 24.3968C114.408 24.0284 114.437 23.6212 114.495 23.1753L114.204 23.1171C113.749 24.5132 112.983 25.5748 111.906 26.3019C110.84 27.0194 109.502 27.3781 107.893 27.3781ZM110.423 24.7604C111.082 24.7604 111.674 24.5908 112.197 24.2514C112.721 23.9024 113.133 23.4128 113.433 22.7826C113.744 22.1427 113.899 21.401 113.899 20.5576V19.1905L111.776 19.6123C110.641 19.8353 109.803 20.1746 109.26 20.6303C108.726 21.0763 108.46 21.7404 108.46 22.6226V22.739C108.46 23.3982 108.625 23.9024 108.954 24.2514C109.294 24.5908 109.783 24.7604 110.423 24.7604ZM129.6 27.3781C126.808 27.3781 124.733 26.9612 123.376 26.1274C122.018 25.2937 121.335 24.009 121.325 22.2736L126.415 21.91C126.396 23.3546 126.648 24.4017 127.171 25.0513C127.705 25.7008 128.538 26.0256 129.673 26.0256C130.594 26.0256 131.306 25.856 131.811 25.5166C132.315 25.1676 132.567 24.6732 132.567 24.0333C132.567 23.5679 132.426 23.1704 132.145 22.8408C131.864 22.5111 131.452 22.2203 130.909 21.9682C130.376 21.7161 129.658 21.4544 128.757 21.1829L126.27 20.4121C124.816 19.9662 123.681 19.4135 122.867 18.7543C122.062 18.095 121.66 17.1885 121.66 16.0348C121.66 14.5417 122.3 13.3928 123.579 12.5881C124.859 11.7737 126.774 11.3665 129.324 11.3665C132 11.3665 133.987 11.7592 135.286 12.5445C136.595 13.3201 137.245 14.4932 137.235 16.0639L132.291 16.3983C132.32 15.0992 132.087 14.1636 131.592 13.5916C131.108 13.0099 130.337 12.719 129.28 12.719C128.417 12.719 127.753 12.8741 127.288 13.1844C126.832 13.4946 126.604 13.9503 126.604 14.5514C126.604 14.9683 126.73 15.327 126.982 15.6276C127.234 15.9281 127.617 16.1996 128.131 16.442C128.645 16.6747 129.348 16.917 130.24 17.1691L132.77 17.8962C133.75 18.1871 134.588 18.5119 135.286 18.8706C135.994 19.2293 136.566 19.7044 137.002 20.2958C137.439 20.8775 137.657 21.6046 137.657 22.4772C137.657 24.0866 136.993 25.3082 135.664 26.142C134.336 26.9661 132.315 27.3781 129.6 27.3781ZM139.339 27V6.64016H144.691V11.2066C144.691 11.8852 144.642 12.6075 144.545 13.3734C144.458 14.1297 144.308 15.0749 144.094 16.2093L144.385 16.2965C145.277 13.0777 147.4 11.4683 150.755 11.4683C152.481 11.4683 153.79 11.8658 154.681 12.6609C155.583 13.4559 156.034 14.6387 156.034 16.2093V27H150.668V16.6456C150.668 15.7342 150.464 15.0604 150.057 14.6241C149.659 14.1878 149.058 13.9697 148.254 13.9697C147.517 13.9697 146.877 14.1878 146.334 14.6241C145.801 15.0507 145.394 15.647 145.112 16.4129C144.831 17.1788 144.691 18.0562 144.691 19.0451V27H139.339Z" fill="#292B33"/>
<path d="M79.0328 36.9277H79.9961V39.9536H80.0187C80.1774 39.6287 80.4267 39.3945 80.7667 39.251C81.1067 39.0998 81.4807 39.0243 81.8887 39.0243C82.342 39.0243 82.7349 39.1074 83.0674 39.2736C83.4074 39.4398 83.6869 39.6665 83.906 39.9536C84.1327 40.2332 84.3027 40.558 84.416 40.9283C84.5293 41.2985 84.586 41.6914 84.586 42.1069C84.586 42.5225 84.5293 42.9153 84.416 43.2856C84.3102 43.6558 84.144 43.9807 83.9174 44.2602C83.6982 44.5322 83.4187 44.7475 83.0787 44.9062C82.7463 45.0649 82.3572 45.1442 81.9114 45.1442C81.7678 45.1442 81.6054 45.1291 81.4241 45.0989C81.2503 45.0686 81.0765 45.0195 80.9027 44.9515C80.729 44.8835 80.5627 44.7929 80.4041 44.6795C80.253 44.5586 80.1245 44.4113 80.0187 44.2375H79.9961V45.0195H79.0328V36.9277ZM83.566 42.0389C83.566 41.7669 83.5282 41.5025 83.4527 41.2456C83.3847 40.9811 83.2751 40.7469 83.124 40.5429C82.9805 40.3389 82.7916 40.1765 82.5574 40.0556C82.3307 39.9347 82.0625 39.8743 81.7527 39.8743C81.4278 39.8743 81.1521 39.9385 80.9254 40.0669C80.6987 40.1954 80.5136 40.3654 80.3701 40.5769C80.2265 40.7809 80.1207 41.0151 80.0527 41.2796C79.9923 41.544 79.9621 41.8122 79.9621 42.0842C79.9621 42.3713 79.9961 42.6509 80.0641 42.9229C80.1321 43.1873 80.2379 43.4216 80.3814 43.6256C80.5325 43.8295 80.7252 43.9958 80.9594 44.1242C81.1936 44.2451 81.4769 44.3055 81.8094 44.3055C82.1418 44.3055 82.4176 44.2413 82.6367 44.1129C82.8634 43.9844 83.0447 43.8144 83.1807 43.6029C83.3167 43.3913 83.4149 43.1496 83.4754 42.8776C83.5358 42.6056 83.566 42.326 83.566 42.0389ZM87.6632 45.8015C87.5499 46.0886 87.4366 46.3304 87.3232 46.5268C87.2175 46.7233 87.0966 46.8819 86.9606 47.0028C86.8321 47.1313 86.6848 47.2219 86.5186 47.2748C86.3599 47.3353 86.1748 47.3655 85.9633 47.3655C85.8499 47.3655 85.7366 47.3579 85.6233 47.3428C85.5099 47.3277 85.4004 47.3013 85.2946 47.2635V46.3795C85.3777 46.4173 85.4721 46.4475 85.5779 46.4702C85.6913 46.5004 85.7857 46.5155 85.8613 46.5155C86.0577 46.5155 86.2201 46.4664 86.3486 46.3682C86.4846 46.2775 86.5866 46.1453 86.6546 45.9715L87.0512 44.9855L84.7279 39.1603H85.8159L87.5272 43.9542H87.5499L89.1932 39.1603H90.2132L87.6632 45.8015Z" fill="#292B33"/>
<path d="M101.442 40.8664V41.0182C101.442 43.2444 100.43 44.4081 98.5072 44.4081C97.1917 44.4081 96.2304 43.7503 95.8763 42.3843L95.7245 42.4349C95.8763 43.3962 95.9775 44.0033 95.9775 44.7116V46.5331H94.1055V37.5778H95.9775C95.9775 37.9825 95.8763 38.5897 95.7245 39.4498L95.8763 39.5004C96.2304 38.0837 97.1917 37.4766 98.5072 37.4766C100.43 37.4766 101.442 38.6402 101.442 40.8664ZM95.9775 40.7146V41.17C95.9775 42.6878 96.6352 43.5986 97.7989 43.5986C98.9626 43.5986 99.5697 42.8396 99.5697 41.2206V40.6134C99.5697 38.9944 98.9626 38.2355 97.7989 38.2355C96.6352 38.2861 95.9775 39.1968 95.9775 40.7146Z" fill="black"/>
<path d="M102.199 42.7888C102.199 41.4734 103.312 40.9674 105.184 40.6639L107.056 40.3097V39.3484C107.056 38.3365 106.652 37.9317 105.741 37.9317C104.678 37.9317 104.274 38.5389 104.274 40.1073L102.351 39.9049C102.3 38.2859 103.413 37.4258 105.69 37.4258C107.866 37.4258 108.878 38.1341 108.878 39.652V43.0924C108.878 43.5478 109.08 43.5984 109.586 43.4466L109.535 43.9525C109.282 44.3067 108.928 44.4585 108.473 44.4585C107.36 44.4585 107.056 43.9019 107.259 42.6371L107.107 42.5865C106.702 43.7501 105.64 44.4585 104.223 44.4585C102.908 44.4585 102.199 43.8513 102.199 42.7888ZM107.006 41.524V40.8156L105.842 41.0686C104.678 41.3216 104.071 41.6758 104.071 42.5359V42.5865C104.071 43.1936 104.425 43.5478 105.134 43.5478C106.146 43.5478 107.006 42.7383 107.006 41.524Z" fill="black"/>
<path d="M110.398 44.3065V37.5774H112.27C112.27 38.1339 112.22 38.6399 112.017 39.9047L112.169 39.9553C112.675 38.0833 113.333 37.5268 114.952 37.375L115.154 38.9434C112.776 39.0952 112.27 39.5506 112.27 41.4226V44.3065H110.398Z" fill="black"/>
<path d="M115.965 44.3069V35.3516H117.837V38.5896C117.837 39.4498 117.786 39.9557 117.685 40.7146L117.786 40.7652L121.378 37.5777H122.39L120.215 39.6015L122.492 44.3069H120.417L118.748 40.7146L117.837 41.5241V44.2563H115.965V44.3069Z" fill="black"/>
<path d="M124.613 44.3073L122.438 37.5781H124.31L125.372 41.1198C125.574 41.8281 125.726 42.4352 125.878 43.1436H126.03C126.182 42.4352 126.333 41.8281 126.485 41.1704L127.446 37.6287H129.015L130.027 41.1704C130.229 41.8281 130.381 42.4352 130.533 43.1942H130.684C130.836 42.4858 131.039 41.8787 131.241 41.1704L132.354 37.6287H133.164L131.039 44.3073H129.268L128.256 41.0186C128.104 40.5126 127.952 39.9055 127.801 39.096H127.649C127.497 39.8549 127.345 40.5126 127.193 41.0186L126.283 44.3578H124.613V44.3073Z" fill="black"/>
<path d="M133.418 42.7888C133.418 41.4734 134.531 40.9674 136.403 40.6639L138.275 40.3097V39.3484C138.275 38.3365 137.87 37.9317 136.96 37.9317C135.897 37.9317 135.492 38.5389 135.492 40.1073L133.57 39.9049C133.519 38.2859 134.632 37.4258 136.909 37.4258C139.085 37.4258 140.096 38.1341 140.096 39.652V43.0924C140.096 43.5478 140.299 43.5984 140.805 43.4466L140.754 43.9525C140.501 44.3067 140.147 44.4585 139.692 44.4585C138.579 44.4585 138.275 43.9019 138.477 42.6371L138.326 42.5865C137.921 43.8007 136.858 44.4585 135.492 44.4585C134.177 44.4585 133.418 43.8513 133.418 42.7888ZM138.275 41.524V40.8156L137.111 41.0686C135.948 41.3216 135.341 41.6758 135.341 42.5359V42.5865C135.341 43.1936 135.695 43.5478 136.403 43.5478C137.415 43.5478 138.275 42.7383 138.275 41.524Z" fill="black"/>
<path d="M140.905 45.1168L142.119 45.0662C143.333 45.0156 143.536 44.9144 143.688 44.6108L143.839 44.3073L140.551 37.5781H142.625L144.092 40.8668C144.295 41.3727 144.497 41.8281 144.7 42.4352H144.851C145.054 41.8281 145.205 41.3727 145.408 40.8668L146.673 37.5781H147.533L144.851 43.9531C143.941 46.0781 143.333 46.5334 141.057 46.6852L140.905 45.1168Z" fill="black"/>
<path d="M150.061 44.3072H157.144C157.347 44.3072 157.499 44.1555 157.499 43.9531V41.8281C154.564 41.8281 152.186 39.4501 152.186 36.5156H150.061C149.859 36.5156 149.707 36.6674 149.707 36.8698V43.9531C149.707 44.1049 149.859 44.3072 150.061 44.3072ZM155.374 42.84H151.124V38.6406C151.781 40.6138 153.35 42.1823 155.374 42.84Z" fill="#F9956B"/>
</svg>
